<?xml version="1.0" encoding="UTF-8" standalone="no"?>
<!DOCTYPE svg PUBLIC "-//W3C//DTD SVG 1.1//EN"
 "http://www.w3.org/Graphics/SVG/1.1/DTD/svg11.dtd">
<!-- Generated by graphviz version 2.47.0 (20210316.0004)
 -->
<!-- Title: dependencies Pages: 1 -->
<svg width="935pt" height="284pt"
 viewBox="0.00 0.00 935.00 284.00" xmlns="http://www.w3.org/2000/svg" xmlns:xlink="http://www.w3.org/1999/xlink">
<g id="graph0" class="graph" transform="scale(1 1) rotate(0) translate(4 280)">
<title>dependencies</title>
<polygon fill="white" stroke="transparent" points="-4,4 -4,-280 931,-280 931,4 -4,4"/>
<text text-anchor="start" x="442.51" y="-42.4" font-family="Times-12" font-weight="bold" font-size="14.00">Legend</text>
<polygon fill="#ffffb3" stroke="transparent" points="229.5,-10 229.5,-30 249.5,-30 249.5,-10 229.5,-10"/>
<text text-anchor="start" x="253.13" y="-15.4" font-family="Times-12" font-size="14.00"> &#160;Declarations</text>
<polygon fill="#8dd3c7" stroke="transparent" points="342.5,-10 342.5,-30 362.5,-30 362.5,-10 342.5,-10"/>
<text text-anchor="start" x="366.23" y="-15.4" font-family="Times-12" font-size="14.00"> &#160;Module</text>
<polygon fill="#80b1d3" stroke="transparent" points="428.5,-10 428.5,-30 448.5,-30 448.5,-10 428.5,-10"/>
<text text-anchor="start" x="452.28" y="-15.4" font-family="Times-12" font-size="14.00"> &#160;Bootstrap</text>
<polygon fill="#fdb462" stroke="transparent" points="525.5,-10 525.5,-30 545.5,-30 545.5,-10 525.5,-10"/>
<text text-anchor="start" x="549.17" y="-15.4" font-family="Times-12" font-size="14.00"> &#160;Providers</text>
<polygon fill="#fb8072" stroke="transparent" points="621.5,-10 621.5,-30 641.5,-30 641.5,-10 621.5,-10"/>
<text text-anchor="start" x="645.23" y="-15.4" font-family="Times-12" font-size="14.00"> &#160;Exports</text>
<g id="clust1" class="cluster">
<title>cluster_AppModule</title>
<polygon fill="none" stroke="black" stroke-dasharray="1,5" points="8,-70 8,-268 919,-268 919,-70 8,-70"/>
</g>
<g id="clust2" class="cluster">
<title>cluster_AppModule_declarations</title>
<polygon fill="none" stroke="black" points="16,-78 16,-130 911,-130 911,-78 16,-78"/>
</g>
<g id="clust11" class="cluster">
<title>cluster_AppModule_bootstrap</title>
<polygon fill="none" stroke="black" points="409,-208 409,-260 533,-260 533,-208 409,-208"/>
</g>
<!-- AppComponent -->
<g id="node1" class="node">
<title>AppComponent</title>
<polygon fill="#ffffb3" stroke="black" points="902.94,-122 797.06,-122 797.06,-86 902.94,-86 902.94,-122"/>
<text text-anchor="middle" x="850" y="-99.8" font-family="Times,serif" font-size="14.00">AppComponent</text>
</g>
<!-- AppModule -->
<g id="node7" class="node">
<title>AppModule</title>
<polygon fill="#8dd3c7" stroke="black" points="512.66,-187 509.66,-191 488.66,-191 485.66,-187 429.34,-187 429.34,-151 512.66,-151 512.66,-187"/>
<text text-anchor="middle" x="471" y="-164.8" font-family="Times,serif" font-size="14.00">AppModule</text>
</g>
<!-- AppComponent&#45;&gt;AppModule -->
<g id="edge1" class="edge">
<title>AppComponent&#45;&gt;AppModule</title>
<path fill="none" stroke="black" d="M850,-122.28C850,-143.32 850,-175 850,-175 850,-175 523.01,-175 523.01,-175"/>
<polygon fill="black" stroke="black" points="523.01,-171.5 513.01,-175 523.01,-178.5 523.01,-171.5"/>
</g>
<!-- EligibilityStepComponent -->
<g id="node2" class="node">
<title>EligibilityStepComponent</title>
<polygon fill="#ffffb3" stroke="black" points="779.51,-122 616.49,-122 616.49,-86 779.51,-86 779.51,-122"/>
<text text-anchor="middle" x="698" y="-99.8" font-family="Times,serif" font-size="14.00">EligibilityStepComponent</text>
</g>
<!-- EligibilityStepComponent&#45;&gt;AppModule -->
<g id="edge2" class="edge">
<title>EligibilityStepComponent&#45;&gt;AppModule</title>
<path fill="none" stroke="black" d="M698,-122.02C698,-139.37 698,-163 698,-163 698,-163 522.9,-163 522.9,-163"/>
<polygon fill="black" stroke="black" points="522.9,-159.5 512.9,-163 522.9,-166.5 522.9,-159.5"/>
</g>
<!-- FaqComponent -->
<g id="node3" class="node">
<title>FaqComponent</title>
<polygon fill="#ffffb3" stroke="black" points="598.33,-122 495.67,-122 495.67,-86 598.33,-86 598.33,-122"/>
<text text-anchor="middle" x="547" y="-99.8" font-family="Times,serif" font-size="14.00">FaqComponent</text>
</g>
<!-- FaqComponent&#45;&gt;AppModule -->
<g id="edge3" class="edge">
<title>FaqComponent&#45;&gt;AppModule</title>
<path fill="none" stroke="black" d="M504.33,-122.11C504.33,-122.11 504.33,-140.99 504.33,-140.99"/>
<polygon fill="black" stroke="black" points="500.83,-140.99 504.33,-150.99 507.83,-140.99 500.83,-140.99"/>
</g>
<!-- GuidedWizardComponent -->
<g id="node4" class="node">
<title>GuidedWizardComponent</title>
<polygon fill="#ffffb3" stroke="black" points="477.74,-122 314.26,-122 314.26,-86 477.74,-86 477.74,-122"/>
<text text-anchor="middle" x="396" y="-99.8" font-family="Times,serif" font-size="14.00">GuidedWizardComponent</text>
</g>
<!-- GuidedWizardComponent&#45;&gt;AppModule -->
<g id="edge4" class="edge">
<title>GuidedWizardComponent&#45;&gt;AppModule</title>
<path fill="none" stroke="black" d="M453.52,-122.11C453.52,-122.11 453.52,-140.99 453.52,-140.99"/>
<polygon fill="black" stroke="black" points="450.02,-140.99 453.52,-150.99 457.02,-140.99 450.02,-140.99"/>
</g>
<!-- HomeComponent -->
<g id="node5" class="node">
<title>HomeComponent</title>
<polygon fill="#ffffb3" stroke="black" points="295.55,-122 180.45,-122 180.45,-86 295.55,-86 295.55,-122"/>
<text text-anchor="middle" x="238" y="-99.8" font-family="Times,serif" font-size="14.00">HomeComponent</text>
</g>
<!-- HomeComponent&#45;&gt;AppModule -->
<g id="edge5" class="edge">
<title>HomeComponent&#45;&gt;AppModule</title>
<path fill="none" stroke="black" d="M238,-122.02C238,-139.37 238,-163 238,-163 238,-163 419.08,-163 419.08,-163"/>
<polygon fill="black" stroke="black" points="419.08,-166.5 429.08,-163 419.08,-159.5 419.08,-166.5"/>
</g>
<!-- ResourcesComponent -->
<g id="node6" class="node">
<title>ResourcesComponent</title>
<polygon fill="#ffffb3" stroke="black" points="162.36,-122 23.64,-122 23.64,-86 162.36,-86 162.36,-122"/>
<text text-anchor="middle" x="93" y="-99.8" font-family="Times,serif" font-size="14.00">ResourcesComponent</text>
</g>
<!-- ResourcesComponent&#45;&gt;AppModule -->
<g id="edge6" class="edge">
<title>ResourcesComponent&#45;&gt;AppModule</title>
<path fill="none" stroke="black" d="M93,-122.28C93,-143.32 93,-175 93,-175 93,-175 419.1,-175 419.1,-175"/>
<polygon fill="black" stroke="black" points="419.1,-178.5 429.1,-175 419.1,-171.5 419.1,-178.5"/>
</g>
<!-- AppComponent  -->
<g id="node8" class="node">
<title>AppComponent </title>
<polygon fill="#80b1d3" stroke="black" points="525.44,-252 416.56,-252 416.56,-216 525.44,-216 525.44,-252"/>
<text text-anchor="middle" x="471" y="-229.8" font-family="Times,serif" font-size="14.00">AppComponent </text>
</g>
<!-- AppModule&#45;&gt;AppComponent  -->
<g id="edge7" class="edge">
<title>AppModule&#45;&gt;AppComponent </title>
<path fill="none" stroke="black" stroke-dasharray="1,5" d="M471,-187.11C471,-187.11 471,-205.99 471,-205.99"/>
<polygon fill="black" stroke="black" points="467.5,-205.99 471,-215.99 474.5,-205.99 467.5,-205.99"/>
</g>
</g>
</svg>
